<svg xmlns="http://www.w3.org/2000/svg" viewBox="0 0 64 64">
  <defs>
    <linearGradient id="g" x1="0%" y1="0%" x2="100%" y2="100%">
      <stop offset="0%" stop-color="#ff6b9d"/>
      <stop offset="100%" stop-color="#c44569"/>
    </linearGradient>
  </defs>
  <circle cx="32" cy="32" r="32" fill="url(#g)"/>
  <path fill="#ffffff" d="M32 14c-1.2 3.8-3.6 6.6-6.4 9.2-3.4 3.1-5.8 6.6-5.8 11.2 0 6.6 5.4 11.6 12.2 11.6s12.2-5 12.2-11.6c0-4.6-2.4-8.1-5.8-11.2-2.8-2.6-5.2-5.4-6.4-9.2z"/>
  <path fill="url(#g)" d="M32 26.5c-.6 1.9-1.8 3.3-3.2 4.6-1.7 1.6-2.9 3.3-2.9 5.6 0 3.3 2.7 5.8 6.1 5.8s6.1-2.5 6.1-5.8c0-2.3-1.2-4-2.9-5.6-1.4-1.3-2.6-2.7-3.2-4.6z"/>
</svg>
